<svg width="200" height="44" viewBox="0 0 200 44" fill="none" xmlns="http://www.w3.org/2000/svg">
<g clip-path="url(#clip0_26183_211791)">
<path d="M96.826 0.378049H96.8501H96.817C94.7922 0.753023 94.359 1.90233 94.359 1.90233C93.8355 2.96933 94.8344 5.86547 96.8501 9.3134C99.3961 8.96202 101.965 8.80407 104.534 8.84088C108.216 8.92319 110.349 9.38657 111.285 9.9658C112.221 10.545 111.941 11.6456 111.826 11.9504C112.515 10.731 113.975 7.79217 114.414 6.024C114.853 4.25583 114.477 3.47844 114.399 3.28029C114.131 2.61625 113.647 2.0653 113.027 1.71942C111.014 0.713391 107.801 0.304883 105.683 0.152454C104.546 0.0508355 103.372 2.59764e-05 102.16 2.59764e-05C100.369 -0.0127547 98.5798 0.113623 96.8079 0.378049H96.7658H96.826Z" fill="url(#paint0_linear_26183_211791)"/>
<path d="M115.392 6.89894C115.539 5.86724 115.41 4.81429 115.019 3.85037C114.822 3.37839 114.545 2.94503 114.2 2.56997C114.011 2.36891 113.803 2.18809 113.577 2.03038C113.402 1.91479 113.218 1.81288 113.027 1.72552C113.647 2.0714 114.131 2.62235 114.399 3.28639C114.477 3.47845 114.85 4.25583 114.414 6.0301C113.978 7.80437 112.527 10.7036 111.835 11.9443C111.667 12.2492 107.702 19.331 105.797 19.3097C103.893 19.2883 99.7112 13.6454 98.6793 12.1699C98.0054 11.1944 97.3886 10.2371 96.8531 9.31341C94.8404 5.87462 93.8446 2.96934 94.3651 1.90234C94.3651 1.90234 94.7983 0.753026 96.823 0.378052H96.7628C91.0948 1.16458 88.6188 2.92666 87.6501 3.9022C87.2964 4.27146 87.0186 4.70814 86.8327 5.18696C86.6468 5.66577 86.5565 6.17721 86.567 6.69164C86.6422 8.91405 87.975 12.0053 88.5857 13.2491C89.6279 15.327 90.8247 17.3215 92.1658 19.2152C93.5031 21.073 95.0035 22.8045 96.6485 24.3886C98.0023 25.6537 99.8676 27.2634 101.405 28.0652C102.029 28.3684 102.711 28.5267 103.403 28.5285C104.408 28.489 105.368 28.0893 106.11 27.4006C107.548 26.0805 108.956 23.5655 109.937 21.8918C111.24 19.5749 112.36 17.1569 113.286 14.6606C113.746 13.432 115.018 9.65485 115.392 6.89894Z" fill="url(#paint1_linear_26183_211791)"/>
<path d="M19.4471 32.199L16.4265 32.2112V43.875H19.4471V32.199Z" fill="#004A2C"/>
<path d="M36.3639 43.7287C35.9238 43.5782 35.5452 43.2846 35.2869 42.8934C34.7935 42.1099 34.7514 41.1618 34.7393 39.918V34.9702H32.8771V32.199H34.7393V29.373H37.7479V32.199H40.5157V34.9702H37.7479V40.2625C37.7395 40.5012 37.7546 40.7402 37.793 40.9758C37.799 41.0374 37.8185 41.0967 37.8501 41.1496C37.8821 41.1735 37.9192 41.1891 37.9585 41.1953C38.1343 41.2337 38.3143 41.2491 38.494 41.2411C38.7432 41.2318 38.9914 41.2053 39.2371 41.1618C39.5018 41.1222 39.7124 41.0764 39.7124 41.0764L40.266 40.9576L40.5668 43.4757L40.1667 43.625C39.4635 43.8384 38.7345 43.9522 38.0006 43.9634C37.4437 43.983 36.8877 43.9036 36.3579 43.7287" fill="#004A2C"/>
<path d="M46.8034 44.0427C46.0382 44.0584 45.2742 43.9702 44.532 43.7805C43.8925 43.6129 43.314 43.2626 42.8653 42.7714C41.9838 41.7837 41.698 40.2808 41.698 38.0523C41.698 36.3755 41.8695 35.1195 42.2997 34.1623C42.515 33.7112 42.8254 33.3136 43.2091 32.9975C43.5928 32.6814 44.0403 32.4546 44.52 32.3331C45.2616 32.1408 46.0263 32.0556 46.7914 32.0801C48.0332 32.0973 49.2697 32.2486 50.4798 32.5313L50.9341 32.641L50.5551 35.3848L50.0045 35.2628C50.0045 35.2628 49.9263 35.2476 49.7879 35.211C49.6495 35.1744 49.4299 35.1561 49.1862 35.1165C48.5591 35.0279 47.927 34.9811 47.2938 34.9762C46.7542 34.9564 46.2143 35.0066 45.6873 35.1256C45.559 35.1548 45.4378 35.21 45.3313 35.2881C45.2247 35.3662 45.135 35.4655 45.0675 35.5799C44.9536 35.8008 44.8782 36.0401 44.8449 36.2871C44.7741 36.8747 44.744 37.4665 44.7546 38.0583C44.7337 38.7001 44.7751 39.3423 44.878 39.9759C44.9138 40.2897 45.0551 40.5814 45.2781 40.8021C45.4354 40.9289 45.6198 41.0167 45.8166 41.0581C46.3022 41.1605 46.7983 41.2025 47.2938 41.1831C48.1293 41.1704 48.962 41.0816 49.7819 40.9179C49.8571 40.9118 49.9317 40.8985 50.0045 40.8783L50.5611 40.7533L50.9402 43.4177L50.525 43.558C49.3137 43.9096 48.0572 44.075 46.7974 44.0488" fill="#004A2C"/>
<path d="M80.2491 34.5556C80.1835 34.145 80.0296 33.7541 79.7982 33.4106C79.5668 33.0671 79.2637 32.7794 78.9104 32.5679C78.2124 32.1777 77.3309 32.0679 76.2027 32.0679C75.5228 32.0679 74.8158 32.1411 74.8037 32.1411H74.6563L73.2574 33.2447C73.2393 33.266 73.2273 33.266 73.2062 33.2904C72.8078 32.8446 72.3138 32.4973 71.7621 32.2752C71.2224 32.1043 70.6572 32.031 70.0924 32.0588H70.0232C69.3974 32.0588 68.6483 32.1319 68.6483 32.1319L68.54 32.1533L67.3366 33.0922C67.2855 33.1227 67.2584 33.1502 67.2223 33.1685C67.129 33.205 67.0989 33.1502 67.0839 33.1075L66.9816 32.1929H64.4695V43.8689H67.478V35.083C68.0594 34.9823 68.6481 34.9313 69.238 34.9305C69.5811 34.9179 69.9246 34.9383 70.2639 34.9915C70.3845 35.021 70.5016 35.0639 70.6129 35.1195C70.7353 35.2413 70.8164 35.3993 70.8445 35.5707C70.9281 35.9869 70.9644 36.4114 70.9528 36.8359V43.875H73.9613V36.0372C73.9642 35.7092 73.9309 35.382 73.8621 35.0616C74.4608 34.9848 75.0637 34.9461 75.6672 34.9458C76.0107 34.9346 76.3545 34.9592 76.6931 35.0189C76.817 35.0416 76.9362 35.0859 77.0451 35.15C77.1768 35.2585 77.2637 35.4129 77.2888 35.5829C77.3632 36.0043 77.3954 36.4323 77.385 36.8603V43.872H80.3935V36.656C80.4133 35.9512 80.3528 35.2463 80.213 34.5556" fill="#004A2C"/>
<path d="M29.9497 32.6197C29.1134 32.1899 28.0724 32.0588 26.7276 32.0588C25.7497 32.0157 24.7726 32.1615 23.8485 32.4886C23.4323 32.6534 23.0545 32.9041 22.7391 33.2248C22.4237 33.5454 22.1775 33.9291 22.0163 34.3513C21.6306 35.5418 21.4494 36.7905 21.4808 38.0431C21.4579 39.0472 21.5785 40.0494 21.8388 41.0185C21.9626 41.5483 22.1994 42.0442 22.5325 42.4713C22.8657 42.8985 23.2871 43.2465 23.7672 43.4909C24.6698 43.9269 25.7408 44.0305 26.9593 44.0427C28.2986 44.0451 29.6299 43.8321 30.9034 43.4117L31.3096 43.2684L30.8914 40.6496L30.3589 40.7472C29.3117 41.0093 28.2392 41.1534 27.1608 41.1771C26.7354 41.1863 26.3099 41.1618 25.8882 41.1039C25.531 41.0537 25.2016 40.8804 24.9556 40.6131C24.6758 40.2533 24.5314 39.5552 24.5314 38.915V38.6589C24.5314 38.6315 24.5555 38.6041 24.5855 38.601V38.5858C24.6084 38.5815 24.6319 38.5815 24.6547 38.5858C24.6974 38.6052 24.7386 38.6276 24.7781 38.6528L25.3286 39.2016L25.4249 39.2808L25.5723 39.3266C26.3048 39.4412 27.0456 39.4912 27.7866 39.476C29.3149 39.4577 30.6387 39.3113 31.2494 39.2869H31.7217L31.7488 38.8175C31.7879 38.0553 31.812 37.6803 31.812 37.2718C31.8336 36.4601 31.7538 35.6488 31.5743 34.8574C31.4893 34.3837 31.2988 33.936 31.0173 33.5482C30.7358 33.1605 30.3707 32.8429 29.9497 32.6197ZM27.4105 36.6987C27.0014 36.6987 26.7276 36.6987 26.7276 36.6987H26.6825C26.6825 36.6987 26.4659 36.6987 26.1199 36.6987C25.7198 36.6987 25.1481 36.6987 24.5946 36.6255C24.6058 36.3408 24.6319 36.0569 24.6728 35.775C24.6936 35.6019 24.7489 35.435 24.8353 35.2842C24.9225 35.1409 24.9977 35.0677 25.3106 34.9793C25.8088 34.8654 26.3198 34.8203 26.8299 34.8452C27.1885 34.8336 27.5474 34.8591 27.9009 34.9214C28.0399 34.9473 28.1733 34.9979 28.295 35.0708C28.4563 35.2156 28.5627 35.4129 28.5959 35.6287C28.6697 35.9682 28.709 36.3145 28.7132 36.6621C28.265 36.6957 27.7926 36.7018 27.4166 36.7018" fill="#004A2C"/>
<path d="M61.9754 33.705C61.7961 33.3809 61.5547 33.0964 61.2654 32.8681C60.9761 32.6399 60.6447 32.4725 60.2907 32.3758C59.3962 32.136 58.4714 32.0332 57.5469 32.071C56.7099 32.0498 55.8734 32.1317 55.0558 32.3148C54.4365 32.4446 53.8728 32.768 53.4443 33.2394C53.0158 33.7108 52.744 34.3065 52.6671 34.9427C52.4825 35.9733 52.4049 37.0206 52.4354 38.0675C52.4139 39.019 52.4733 39.9706 52.6129 40.9118C52.6898 41.4374 52.86 41.9446 53.1153 42.4087C53.4829 43.0612 54.091 43.5393 54.8061 43.7378C55.6977 43.9775 56.6188 44.0853 57.5409 44.0579C58.3784 44.073 59.2149 43.9933 60.0349 43.8201C60.523 43.7062 60.977 43.4751 61.3587 43.1464C61.9224 42.6369 62.2971 41.9474 62.4207 41.1923C62.5971 40.1608 62.6706 39.1139 62.6403 38.0675C62.6603 37.1153 62.604 36.1631 62.4718 35.2201C62.3968 34.6931 62.2265 34.1846 61.9694 33.7202M59.5175 39.9942C59.4938 40.2492 59.4351 40.4996 59.343 40.738C59.3092 40.838 59.2505 40.9273 59.1724 40.9973C59.0944 41.0674 58.9997 41.1156 58.8977 41.1374C58.4527 41.2381 57.9964 41.2781 57.5409 41.2563C57.1206 41.2736 56.6998 41.2429 56.2863 41.1648C56.1392 41.1413 56.0022 41.0745 55.8922 40.9728C55.7095 40.7393 55.6042 40.4534 55.5914 40.1558C55.5173 39.4623 55.4872 38.7648 55.5011 38.0675C55.489 37.4244 55.5131 36.7811 55.5733 36.1408C55.5968 35.8851 55.6545 35.6338 55.7448 35.3939C55.7827 35.2952 55.8439 35.2074 55.9231 35.1383C56.0023 35.0692 56.0971 35.0209 56.1991 34.9976C56.6407 34.8879 57.0957 34.8437 57.5499 34.8665C57.9712 34.8521 58.3928 34.8837 58.8075 34.961C58.9547 34.9887 59.0919 35.0561 59.2046 35.1561C59.3878 35.3881 59.4932 35.6732 59.5054 35.9701C59.584 36.6662 59.6152 37.367 59.5987 38.0675C59.5987 38.8967 59.5776 39.5339 59.5295 39.9942" fill="#004A2C"/>
<path d="M115.187 34.5555C115.119 34.1452 114.963 33.7549 114.731 33.4116C114.498 33.0684 114.195 32.7805 113.842 32.5678C113.138 32.1776 112.266 32.0679 111.135 32.0679C110.716 32.0679 109.91 32.1624 109.901 32.1624H109.76L108.556 33.1013C108.516 33.1229 108.479 33.1495 108.445 33.1806C108.432 33.1867 108.418 33.19 108.404 33.1905C108.39 33.191 108.376 33.1887 108.363 33.1835C108.35 33.1784 108.337 33.1707 108.327 33.1607C108.317 33.1508 108.309 33.1389 108.303 33.1257L108.201 32.1837H105.656V43.8597H108.665V35.1103C109.309 34.9968 109.962 34.9366 110.617 34.9305C110.96 34.9179 111.304 34.9384 111.643 34.9914C111.765 35.0188 111.883 35.0619 111.995 35.1195C112.124 35.2373 112.209 35.3967 112.236 35.5707C112.315 35.9873 112.348 36.4117 112.335 36.8358V43.875H115.358V36.656C115.374 35.9512 115.313 35.2469 115.178 34.5555" fill="#004A2C"/>
<path d="M127.597 43.2501C127.581 43.2303 127.562 43.2119 127.543 43.1952C127.528 43.1799 127.519 43.1617 127.501 43.1586C124.092 40.11 123.178 37.5584 123.178 37.5584L125.184 35.2567L127.116 33.016L128.106 31.8941H127.371H124.552L120.69 36.2292C120.621 36.3103 120.546 36.3848 120.464 36.4518C120.384 36.4976 120.29 36.5147 120.199 36.5005V27.6109H117.17V43.875H120.196V38.7168C120.196 38.7168 120.422 38.6894 120.497 38.8083C120.497 38.8083 122.128 42.0733 124.408 43.8598H127.164V43.8781H128.313C128.054 43.6738 127.805 43.4452 127.582 43.2684" fill="#004A2C"/>
<path d="M103.493 33.9824C103.278 33.4618 102.903 33.0248 102.425 32.7356C101.57 32.2112 100.427 32.0679 98.965 32.0679C97.4581 32.057 95.9569 32.256 94.5034 32.6594L94.0762 32.7904L94.5154 35.5342L95.084 35.3909L95.3849 35.3177C96.4712 35.0669 97.5803 34.931 98.6943 34.9122C99.4975 34.9122 100.042 34.9702 100.31 35.1074C100.473 35.1749 100.608 35.2977 100.692 35.4549C100.778 35.6834 100.819 35.9268 100.812 36.1713L97.4307 36.2018C96.8473 36.1958 96.2657 36.2675 95.7008 36.4152C95.3524 36.4945 95.0246 36.648 94.7393 36.8656C94.454 37.0833 94.2177 37.3599 94.0461 37.6773C93.7182 38.3266 93.6129 39.0949 93.6069 40.0826C93.5887 40.6989 93.6566 41.3147 93.8084 41.9118C93.8995 42.2881 94.0742 42.6384 94.3193 42.9359C94.5643 43.2333 94.8733 43.4701 95.2224 43.6281C95.9325 43.933 96.8109 44.0397 97.9542 44.0519C98.6582 44.0519 99.5216 43.9482 99.5216 43.9482L99.6901 43.9269L100.893 42.997C100.932 42.9644 100.972 42.9338 101.014 42.9056C101.039 42.8955 101.068 42.8958 101.093 42.9067C101.118 42.9175 101.139 42.9379 101.149 42.9635L101.242 43.8781H103.839V35.9305C103.863 35.2657 103.754 34.6029 103.517 33.9824M100.809 40.8966C99.9319 41.0744 99.0411 41.1764 98.1467 41.2014C97.8652 41.2071 97.5836 41.1918 97.3043 41.1557C97.1855 41.1457 97.0683 41.1211 96.9553 41.0825C96.8721 41.035 96.8066 40.9611 96.7688 40.8722C96.685 40.6128 96.6483 40.3401 96.6605 40.0674C96.65 39.7707 96.6866 39.4743 96.7688 39.1894C96.7921 39.1222 96.8278 39.0601 96.8741 39.0065C97.0047 38.9439 97.1453 38.9057 97.2893 38.8937C97.533 38.8937 97.8669 38.8937 98.2851 38.8937L100.809 38.8358V40.8966Z" fill="#004A2C"/>
<path d="M89.8824 32.3972C89.2002 32.1611 88.4821 32.0496 87.7614 32.0679C87.4749 32.0727 87.1892 32.1003 86.907 32.1502C86.8197 32.1746 86.7385 32.1838 86.6783 32.199L85.508 33.1441C85.4687 33.1705 85.4274 33.1939 85.3847 33.2142C85.3034 33.2538 85.2643 33.2142 85.2613 33.1684V27.6109H82.2528V43.2531L82.6048 43.3659C83.9855 43.8106 85.4251 44.0388 86.8739 44.0427C87.7441 44.0634 88.6126 43.9556 89.4522 43.7226C89.9489 43.5902 90.4083 43.3425 90.7942 42.9991C91.1801 42.6557 91.4818 42.226 91.6755 41.7441C92.0846 40.7807 92.1779 39.5674 92.1779 37.9974C92.1779 36.028 92.0094 34.586 91.3265 33.5282C90.9699 33.0111 90.4661 32.6165 89.8824 32.3972ZM89.031 39.8113C89.0022 40.0689 88.9352 40.3207 88.8324 40.5582C88.7911 40.6659 88.7276 40.7635 88.6462 40.8445C88.5647 40.9254 88.4672 40.9879 88.3601 41.0277C87.9824 41.145 87.5875 41.1956 87.1928 41.177C86.6461 41.173 86.1003 41.1313 85.5592 41.052C85.4695 41.04 85.381 41.0206 85.2944 40.9941V35.1683C85.9401 35.009 86.6007 34.9201 87.265 34.9031C87.615 34.8871 87.9651 34.9325 88.2999 35.0372C88.4418 35.0789 88.5697 35.159 88.67 35.2689C88.8584 35.522 88.9786 35.8203 89.019 36.1347C89.1015 36.7519 89.1377 37.3746 89.1273 37.9974C89.1395 38.6087 89.1073 39.22 89.031 39.8265" fill="#004A2C"/>
<path d="M5.27393 43.6251L5.301 43.6708L5.35215 43.686C6.12647 43.853 6.91616 43.9358 7.70781 43.933C8.4638 43.9383 9.21788 43.8554 9.95517 43.686H10.0093L10.0364 43.6311C12.6414 39.6159 14.3631 35.0795 15.0847 30.3302C15.2182 29.473 15.3046 28.6089 15.3434 27.742L11.7603 28.2816C11.4955 30.2479 10.5388 35.903 7.84921 40.5186L7.73489 40.7106L7.62658 40.5186C6.0807 37.7802 4.93841 34.8274 4.23599 31.7539C3.96522 30.5985 3.73056 29.0102 3.63428 28.2664L0 27.7664C0 28.4157 0.26475 35.8421 5.27393 43.619" fill="#004A2C"/>
<path d="M199.85 13.3405C199.786 12.5814 199.702 11.9016 199.603 11.2949C199.57 11.0968 199.534 10.9047 199.498 10.7218C199.479 10.6273 199.458 10.5328 199.44 10.4444C199.38 10.2096 199.308 9.97489 199.23 9.74625L199.103 9.37737C199.061 9.26457 199.016 9.14873 198.968 9.03288C198.631 8.19022 198.191 7.39348 197.659 6.6611C196.285 4.89346 194.525 3.4723 192.518 2.50894C190.469 1.55016 188.237 1.06293 185.98 1.08221C183.495 1.04625 181.036 1.59956 178.799 2.69796C176.736 3.82582 174.988 5.46255 173.715 7.45677C173.045 8.47449 172.574 9.61284 172.328 10.8102V10.8498C172.165 11.4909 172.054 12.1445 171.997 12.804C174.29 13.6639 176.33 15.1012 177.923 16.9805C178.318 17.4421 178.689 17.9244 179.034 18.4255C179.157 18.5993 179.265 18.77 179.377 18.9407C179.419 19.0048 179.464 19.0749 179.5 19.1419V16.0934C179.489 15.0509 179.59 14.0103 179.801 12.9899C179.855 12.7277 179.924 12.4808 179.996 12.243C180.099 11.8983 180.228 11.562 180.381 11.237C180.481 11.0297 180.586 10.8315 180.7 10.6425C180.815 10.4535 180.938 10.2828 181.064 10.1151C182.168 8.76766 183.772 8.09392 185.902 8.09392C188.032 8.09392 189.66 8.75241 190.683 10.0633C190.822 10.2261 190.951 10.3971 191.071 10.5755C191.583 11.3777 191.933 12.2751 192.1 13.2155C192.127 13.3436 192.148 13.4746 192.169 13.6088C192.19 13.7429 192.211 13.8832 192.226 14.0203C192.298 14.614 192.333 15.2117 192.331 15.8099V28.5437C192.36 29.9289 192.191 31.3111 191.829 32.6471C191.79 32.769 191.751 32.891 191.708 33.0099C191.492 33.6619 191.166 34.2714 190.746 34.8116C190.162 35.575 189.365 36.1432 188.459 36.4426C188.354 36.4822 188.246 36.5188 188.137 36.5493C187.793 36.6454 187.442 36.7157 187.087 36.7596C186.694 36.811 186.298 36.8355 185.902 36.8328C183.742 36.8328 182.129 36.1784 181.064 34.8695C181.013 34.8055 180.968 34.7384 180.923 34.6714C180.909 34.717 180.891 34.7618 180.872 34.8055C180.83 34.9335 180.779 35.0616 180.727 35.1927C180.213 36.4742 179.561 37.694 178.781 38.8296C178.254 39.617 177.667 40.3621 177.027 41.0581C177.74 41.5858 178.505 42.0374 179.31 42.4056C181.356 43.3899 183.596 43.8873 185.86 43.8597C188.351 43.9069 190.816 43.352 193.053 42.2409C195.129 41.1347 196.885 39.5012 198.15 37.5004C198.454 37.0027 198.718 36.4807 198.938 35.9396C199.194 35.3237 199.395 34.6861 199.54 34.0342C199.721 33.1505 199.842 32.2551 199.901 31.3545C199.901 31.2417 199.901 31.1259 199.922 31.01C199.922 30.7783 199.946 30.5405 199.958 30.2967C199.976 29.8089 199.985 29.2967 199.985 28.7724V16.3129C199.976 15.2245 199.925 14.2307 199.85 13.3405Z" fill="url(#paint2_linear_26183_211791)"/>
<path d="M166.497 0.0609745H173.633L164.006 14.7795C164.572 14.6283 165.148 14.5183 165.73 14.4502C166.47 14.371 166.991 14.3313 167.3 14.3313C170.784 14.3313 173.751 15.7306 176.2 18.5292C178.586 21.3054 179.782 24.733 179.786 28.812C179.766 30.3177 179.502 31.8099 179.007 33.2294C178.521 34.765 177.811 36.218 176.901 37.5401C175.396 39.7686 173.636 41.3477 171.66 42.2989C169.485 43.3911 167.083 43.9369 164.656 43.8903C162.697 43.9194 160.752 43.5478 158.937 42.7977C157.123 42.0476 155.476 40.9344 154.096 39.5247C152.687 38.1995 151.57 36.5882 150.816 34.796C150.063 33.0037 149.691 31.0707 149.725 29.123C149.772 27.0083 150.179 24.9178 150.928 22.9435C151.744 20.84 153.358 17.9551 155.769 14.2886L164.223 1.29869C164.471 0.917984 164.809 0.605663 165.206 0.389668C165.603 0.173673 166.047 0.0607412 166.497 0.0609745ZM157.857 28.4858C157.857 30.7519 158.519 32.5933 159.842 34.0098C160.44 34.7071 161.18 35.264 162.011 35.6421C162.842 36.0201 163.745 36.21 164.656 36.1987C166.718 36.1987 168.37 35.5108 169.611 34.1348C170.935 32.7325 171.597 30.9389 171.597 28.7541C171.653 26.775 170.94 24.8526 169.611 23.4008C168.408 22.0655 166.794 21.3674 164.77 21.3065C163.856 21.2878 162.947 21.4588 162.1 21.809C161.253 22.1592 160.486 22.6812 159.845 23.3429C158.58 24.6497 157.917 26.364 157.857 28.4858Z" fill="url(#paint3_linear_26183_211791)"/>
<path d="M181.762 21.532V18.9011L181.161 19.27V18.6816L181.762 18.3188H182.316V21.532H181.762Z" fill="#004A2C"/>
<path d="M184.208 18.2579C184.405 18.2544 184.599 18.3061 184.768 18.4072C184.932 18.5049 185.068 18.6461 185.159 18.8157C185.259 19.0028 185.309 19.2129 185.303 19.4255V20.4071C185.308 20.6274 185.259 20.8454 185.159 21.0412C185.068 21.2173 184.928 21.3625 184.756 21.4589C184.571 21.5585 184.364 21.6089 184.154 21.6052C183.999 21.6062 183.845 21.5783 183.7 21.5229C183.555 21.4668 183.424 21.3782 183.318 21.2637L183.697 20.8888C183.754 20.9556 183.825 21.0088 183.904 21.0442C183.982 21.0831 184.068 21.1029 184.154 21.1022C184.263 21.1053 184.37 21.0787 184.465 21.025C184.56 20.9713 184.638 20.8926 184.693 20.7973C184.744 20.704 184.771 20.5991 184.771 20.4925V19.9407L184.864 20.0474C184.777 20.1553 184.665 20.2409 184.539 20.2973C184.413 20.3581 184.276 20.3893 184.136 20.3888C183.952 20.3923 183.77 20.3449 183.61 20.2516C183.458 20.1601 183.334 20.0296 183.249 19.8736C183.159 19.7093 183.114 19.5245 183.116 19.3371C183.114 19.1444 183.166 18.9551 183.267 18.7914C183.366 18.6274 183.505 18.4921 183.671 18.3986C183.837 18.3052 184.024 18.2567 184.214 18.2579H184.208ZM184.208 18.77C184.11 18.7694 184.014 18.7951 183.929 18.8443C183.844 18.8936 183.773 18.9647 183.724 19.0505C183.673 19.137 183.647 19.2363 183.649 19.3371C183.648 19.4364 183.672 19.5342 183.721 19.6206C183.77 19.7059 183.839 19.7773 183.922 19.8279C184.008 19.8769 184.104 19.9022 184.202 19.901C184.301 19.9021 184.399 19.8769 184.485 19.8279C184.569 19.7774 184.64 19.7061 184.69 19.6206C184.739 19.5344 184.765 19.4366 184.765 19.3371C184.766 19.2382 184.74 19.141 184.69 19.0566C184.64 18.972 184.571 18.9009 184.488 18.8493C184.404 18.7969 184.307 18.7695 184.208 18.77Z" fill="#004A2C"/>
<path d="M187.06 21.5991C186.866 21.6029 186.674 21.5522 186.507 21.4527C186.339 21.3532 186.202 21.2087 186.11 21.0351C186.01 20.8481 185.96 20.6379 185.965 20.4254V19.4499C185.96 19.2286 186.01 19.0095 186.11 18.8127C186.207 18.6385 186.352 18.4966 186.528 18.4042C186.713 18.3045 186.92 18.2542 187.13 18.2579C187.286 18.2572 187.441 18.2851 187.587 18.3402C187.732 18.3952 187.863 18.4839 187.969 18.5993L187.587 18.9773C187.531 18.9102 187.461 18.8561 187.382 18.8188C187.303 18.7803 187.217 18.7605 187.13 18.7609C187.015 18.7574 186.902 18.7882 186.805 18.8493C186.715 18.9053 186.641 18.9841 186.591 19.0779C186.541 19.1717 186.515 19.2764 186.516 19.3828V19.9133L186.42 19.8066C186.51 19.7001 186.622 19.6148 186.747 19.5566C186.872 19.4962 187.009 19.4649 187.148 19.4651C187.333 19.4615 187.516 19.5089 187.677 19.6023C187.827 19.6936 187.952 19.8228 188.038 19.9773C188.128 20.1436 188.173 20.3305 188.17 20.5199C188.172 20.713 188.119 20.9025 188.017 21.0656C187.919 21.2268 187.783 21.36 187.62 21.4528C187.45 21.5522 187.257 21.6027 187.06 21.5991ZM187.06 21.0839C187.159 21.0854 187.257 21.0602 187.343 21.0107C187.427 20.9614 187.498 20.8911 187.548 20.8065C187.598 20.721 187.625 20.6227 187.623 20.523C187.624 20.4223 187.598 20.3232 187.548 20.2364C187.499 20.151 187.43 20.0797 187.346 20.0291C187.261 19.9791 187.165 19.9528 187.066 19.9529C186.968 19.952 186.871 19.9778 186.786 20.0277C186.701 20.0775 186.63 20.1496 186.582 20.2364C186.534 20.3229 186.508 20.4206 186.508 20.5199C186.508 20.6193 186.534 20.7169 186.582 20.8034C186.632 20.8869 186.701 20.9569 186.784 21.0077C186.867 21.0586 186.963 21.0849 187.06 21.0839Z" fill="#004A2C"/>
<path d="M189.654 21.593C189.5 21.5942 189.347 21.5631 189.205 21.5016C189.066 21.4396 188.941 21.3481 188.838 21.2333C188.732 21.1183 188.655 20.9793 188.613 20.8278L189.127 20.6876C189.158 20.8035 189.227 20.9055 189.321 20.9773C189.416 21.0492 189.532 21.0867 189.651 21.0839C189.749 21.0858 189.846 21.0605 189.931 21.0107C190.011 20.9625 190.078 20.8943 190.126 20.8126C190.172 20.7254 190.196 20.6279 190.195 20.5291C190.197 20.4555 190.185 20.3823 190.158 20.3137C190.132 20.2451 190.092 20.1825 190.042 20.1297C189.992 20.0764 189.931 20.0345 189.863 20.0066C189.796 19.9788 189.723 19.9657 189.651 19.9681C189.555 19.971 189.461 19.9972 189.377 20.0443L189.133 19.6206L190.198 18.706L190.246 18.8371H188.742V18.3188H190.689V18.828L189.837 19.6633V19.5047C190.014 19.5128 190.184 19.5697 190.331 19.6694C190.46 19.7632 190.564 19.8892 190.632 20.0352C190.704 20.1892 190.742 20.3582 190.74 20.5291C190.743 20.7215 190.692 20.9108 190.592 21.0748C190.497 21.2336 190.362 21.3641 190.201 21.4528C190.035 21.5485 189.845 21.5969 189.654 21.593Z" fill="#004A2C"/>
<path d="M180.751 26.6293V26.1598L182.108 24.9404C182.198 24.8666 182.273 24.7754 182.328 24.6721C182.368 24.5959 182.389 24.5113 182.391 24.4252C182.392 24.3253 182.368 24.2269 182.322 24.1386C182.278 24.0573 182.213 23.989 182.135 23.9404C182.051 23.8911 181.956 23.8658 181.859 23.8673C181.753 23.8628 181.649 23.8892 181.558 23.9435C181.475 23.993 181.407 24.0634 181.359 24.1477C181.314 24.2316 181.291 24.3263 181.293 24.4221H180.748C180.743 24.2254 180.792 24.0311 180.89 23.8612C180.983 23.7029 181.119 23.5748 181.281 23.4923C181.46 23.4019 181.658 23.3569 181.859 23.3612C182.05 23.3565 182.239 23.4039 182.406 23.4984C182.566 23.5856 182.698 23.7166 182.788 23.8764C182.882 24.0469 182.929 24.2393 182.927 24.4343C182.93 24.5653 182.909 24.6957 182.863 24.8184C182.823 24.9313 182.76 25.0349 182.68 25.1233C182.599 25.2087 182.496 25.3062 182.379 25.4281L181.413 26.2574L181.365 26.1232H182.927V26.6293H180.751Z" fill="#004A2C"/>
<path d="M184.648 26.6994C184.438 26.7046 184.23 26.6542 184.046 26.5531C183.877 26.4595 183.738 26.3188 183.646 26.1476C183.546 25.9606 183.496 25.7504 183.501 25.5379V24.5105C183.496 24.298 183.546 24.0878 183.646 23.9008C183.739 23.7294 183.877 23.5879 184.046 23.4923C184.231 23.3937 184.438 23.3444 184.648 23.349C184.857 23.3429 185.064 23.3923 185.249 23.4923C185.419 23.5877 185.558 23.7292 185.652 23.9008C185.752 24.0878 185.802 24.298 185.797 24.5105V25.544C185.802 25.7565 185.752 25.9667 185.652 26.1537C185.559 26.3251 185.419 26.4658 185.249 26.5592C185.064 26.6589 184.857 26.7073 184.648 26.6994ZM184.648 26.1903C184.753 26.1911 184.857 26.1627 184.948 26.108C185.038 26.0542 185.112 25.9788 185.165 25.8885C185.217 25.7956 185.244 25.6904 185.243 25.5836V24.4678C185.244 24.361 185.217 24.2559 185.165 24.163C185.112 24.0727 185.038 23.9972 184.948 23.9435C184.856 23.8925 184.753 23.8658 184.648 23.8658C184.542 23.8658 184.439 23.8925 184.347 23.9435C184.258 23.9972 184.183 24.0727 184.13 24.163C184.078 24.2559 184.051 24.361 184.052 24.4678V25.5836C184.051 25.6904 184.078 25.7956 184.13 25.8885C184.183 25.9788 184.258 26.0542 184.347 26.108C184.438 26.1627 184.542 26.1911 184.648 26.1903Z" fill="#004A2C"/>
<path d="M186.362 26.6293V26.1598L187.716 24.9403C187.807 24.8663 187.882 24.7752 187.939 24.6721C187.976 24.5952 187.997 24.5109 187.999 24.4251C188.002 24.3251 187.978 24.2262 187.93 24.1386C187.885 24.0542 187.818 23.9841 187.736 23.9362C187.654 23.8882 187.561 23.8644 187.467 23.8673C187.361 23.8627 187.257 23.8892 187.166 23.9435C187.083 23.993 187.015 24.0634 186.967 24.1477C186.922 24.2318 186.901 24.3266 186.904 24.4221H186.356C186.352 24.2256 186.401 24.0317 186.498 23.8612C186.592 23.6947 186.732 23.56 186.901 23.474C187.08 23.383 187.278 23.3379 187.479 23.3429C187.669 23.3386 187.857 23.386 188.023 23.4801C188.183 23.5673 188.315 23.6983 188.405 23.8581C188.5 24.028 188.548 24.2208 188.544 24.416C188.547 24.547 188.526 24.6774 188.48 24.8001C188.44 24.913 188.377 25.0166 188.297 25.105C188.216 25.1903 188.116 25.2879 187.996 25.4098L187.033 26.2756L186.985 26.1415H188.544V26.6475L186.362 26.6293Z" fill="#004A2C"/>
<path d="M190.024 26.6933C189.87 26.6945 189.717 26.6633 189.575 26.6018C189.436 26.5398 189.311 26.4484 189.208 26.3336C189.102 26.2186 189.025 26.0795 188.983 25.9281L189.497 25.7879C189.528 25.9037 189.597 26.0058 189.691 26.0776C189.786 26.1495 189.902 26.187 190.021 26.1842C190.119 26.1861 190.216 26.1608 190.301 26.111C190.381 26.0628 190.448 25.9946 190.496 25.9129C190.542 25.8257 190.566 25.7282 190.565 25.6293C190.567 25.5558 190.555 25.4825 190.528 25.4139C190.502 25.3454 190.462 25.2828 190.412 25.23C190.362 25.1767 190.301 25.1348 190.233 25.1069C190.166 25.0791 190.093 25.066 190.021 25.0684C189.925 25.0713 189.831 25.0974 189.747 25.1446L189.503 24.7209L190.568 23.8063L190.616 23.9374H189.112V23.4191H191.041V23.9282L190.183 24.7635V24.605C190.359 24.613 190.53 24.67 190.677 24.7696C190.806 24.8635 190.91 24.9894 190.977 25.1355C191.05 25.2895 191.087 25.4585 191.086 25.6293C191.089 25.8217 191.038 26.011 190.938 26.175C190.843 26.3339 190.708 26.4644 190.547 26.5531C190.388 26.6446 190.207 26.6929 190.024 26.6933Z" fill="#004A2C"/>
<path d="M191.104 22.3003H180.751V22.5289H191.104V22.3003Z" fill="#004A2C"/>
<path d="M199.85 13.3405C199.783 12.5814 199.702 11.9016 199.603 11.295C199.567 11.0968 199.534 10.9047 199.498 10.7218C199.476 10.6304 199.458 10.5389 199.44 10.4535C199.377 10.2127 199.305 9.97797 199.23 9.74628L199.103 9.3774L198.977 9.07254C197.597 7.22755 195.68 5.86855 193.496 5.18748C191.312 4.5064 188.973 4.53767 186.807 5.27687C184.642 6.01606 182.761 7.42583 181.429 9.30706C180.097 11.1883 179.383 13.4459 179.386 15.7611V18.956C179.428 19.02 179.473 19.0901 179.509 19.1572V16.1086C179.498 15.0662 179.599 14.0256 179.81 13.0052C179.864 12.743 179.933 12.4961 180.005 12.2583C180.108 11.9136 180.237 11.5773 180.39 11.2523C180.49 11.045 180.595 10.8468 180.709 10.6578C180.824 10.4688 180.947 10.2981 181.073 10.1304C182.178 8.78293 183.781 8.1092 185.911 8.1092C188.041 8.1092 189.669 8.76769 190.692 10.0786C190.831 10.2413 190.961 10.4124 191.08 10.5907C191.592 11.393 191.942 12.2904 192.109 13.2308C192.136 13.3619 192.16 13.4899 192.178 13.6241C192.196 13.7582 192.22 13.8954 192.235 14.0356C192.308 14.6322 192.344 15.233 192.34 15.8343V28.5438C192.369 29.929 192.2 31.3111 191.838 32.6471C191.802 32.7721 191.76 32.891 191.718 33.0099C191.501 33.6619 191.175 34.2714 190.755 34.8116C190.171 35.575 189.374 36.1432 188.468 36.4426C188.363 36.4822 188.255 36.5158 188.146 36.5493C187.802 36.6454 187.451 36.7157 187.096 36.7597C186.703 36.8111 186.307 36.8355 185.911 36.8328C183.751 36.8328 182.138 36.1784 181.073 34.8695C181.022 34.8055 180.977 34.7385 180.932 34.6714C180.918 34.7171 180.9 34.7619 180.881 34.8055C181.78 36.372 183.046 37.6898 184.567 38.6425C186.088 39.5951 187.817 40.1532 189.602 40.2675C191.387 40.3817 193.171 40.0485 194.799 39.2974C196.426 38.5462 197.846 37.4003 198.932 35.9609C199.189 35.3402 199.39 34.6974 199.534 34.0403C199.719 33.1582 199.842 32.2637 199.901 31.3637C199.901 31.2509 199.901 31.135 199.922 31.0192C199.934 30.7875 199.946 30.5497 199.958 30.3058C199.976 29.8181 199.985 29.3059 199.985 28.7815V16.3129C199.976 15.2246 199.925 14.2307 199.85 13.3405Z" fill="url(#paint4_linear_26183_211791)"/>
<path d="M170.309 24.3062C170.309 24.3062 170.342 24.352 170.345 24.3611C171.239 25.6919 171.701 27.2725 171.666 28.8821C171.666 31.0832 170.999 32.888 169.665 34.2964C168.42 35.6835 166.753 36.3755 164.677 36.3755C163.849 36.3811 163.027 36.2199 162.261 35.9011C161.494 35.5824 160.798 35.1126 160.212 34.519H160.188C160.137 34.4732 160.107 34.4214 160.056 34.3726C160.005 34.3238 159.906 34.2476 159.836 34.1714C159.767 34.0952 159.692 33.9702 159.611 33.8666C153.416 26.9737 164.03 14.8008 164.03 14.8008L173.718 0H166.533C166.08 0.000412819 165.633 0.114472 165.234 0.332018C164.835 0.549565 164.494 0.863845 164.244 1.24686L155.73 14.3069C153.299 17.9957 151.674 20.9 150.856 23.0197C150.106 25.0064 149.699 27.1091 149.653 29.2358C149.616 31.1953 149.988 33.1406 150.743 34.9449C151.499 36.7491 152.621 38.372 154.036 39.7076C155.022 40.6607 156.125 41.4804 157.318 42.1465C163.335 44.1677 170.462 41.8691 172.346 35.7872C175.162 26.7512 170.309 24.3062 170.309 24.3062Z" fill="url(#paint5_linear_26183_211791)"/>
</g>
<defs>
<linearGradient id="paint0_linear_26183_211791" x1="94.241" y1="6.00494" x2="114.627" y2="5.95227" gradientUnits="userSpaceOnUse">
<stop stop-color="#10532E"/>
<stop offset="0.91" stop-color="#94C023"/>
</linearGradient>
<linearGradient id="paint1_linear_26183_211791" x1="90.2861" y1="0.689565" x2="112.876" y2="19.2954" gradientUnits="userSpaceOnUse">
<stop offset="0.1" stop-color="#94C023"/>
<stop offset="0.63" stop-color="#437D2A"/>
<stop offset="1" stop-color="#10532E"/>
</linearGradient>
<linearGradient id="paint2_linear_26183_211791" x1="171.997" y1="22.4801" x2="200" y2="22.4801" gradientUnits="userSpaceOnUse">
<stop stop-color="#94C023"/>
<stop offset="0.63" stop-color="#337329"/>
<stop offset="1" stop-color="#004A2C"/>
</linearGradient>
<linearGradient id="paint3_linear_26183_211791" x1="149.722" y1="21.968" x2="179.789" y2="21.968" gradientUnits="userSpaceOnUse">
<stop stop-color="#94C023"/>
<stop offset="0.63" stop-color="#337329"/>
<stop offset="1" stop-color="#004A2C"/>
</linearGradient>
<linearGradient id="paint4_linear_26183_211791" x1="209.97" y1="43.2348" x2="179.932" y2="12.3809" gradientUnits="userSpaceOnUse">
<stop stop-color="#94C023"/>
<stop offset="0.63" stop-color="#337329"/>
<stop offset="1" stop-color="#004A2C"/>
</linearGradient>
<linearGradient id="paint5_linear_26183_211791" x1="161.891" y1="19.1389" x2="180.674" y2="28.8727" gradientUnits="userSpaceOnUse">
<stop stop-color="#94C023"/>
<stop offset="0.63" stop-color="#337329"/>
<stop offset="1" stop-color="#004A2C"/>
</linearGradient>
<clipPath id="clip0_26183_211791">
<rect width="200" height="44" fill="white"/>
</clipPath>
</defs>
</svg>
