<svg xmlns="http://www.w3.org/2000/svg" viewBox="0 0 331.48 75.14"><defs><style>.cls-1{fill:#e10600;}.cls-2{fill:#00b74f;}</style></defs><title>Artboard 13</title><g id="Layer_1" data-name="Layer 1"><path class="cls-1" d="M87,27.39H76.85a20.17,20.17,0,0,0-15.28,7l-16,18.54V74.11a12.78,12.78,0,0,0,7.86-4.19L88,29.72A1.39,1.39,0,0,0,87,27.39Z"/><path class="cls-1" d="M1.4,27.39H11.52a20.15,20.15,0,0,1,15.28,7l16,18.54V74.11a12.78,12.78,0,0,1-7.86-4.19L.37,29.72A1.39,1.39,0,0,1,1.4,27.39Z"/><path class="cls-1" d="M64.62,1.38V22a12.23,12.23,0,0,1-3,8L45.58,48.65V19.75L62.21.48A1.37,1.37,0,0,1,64.62,1.38Z"/><path class="cls-1" d="M23.75,1.38V22a12.19,12.19,0,0,0,3,8L42.79,48.65V19.75L26.17.48A1.38,1.38,0,0,0,23.75,1.38Z"/><path class="cls-2" d="M330.2,28.83a4.35,4.35,0,1,1-3.06-1.28,4.21,4.21,0,0,1,3.06,1.28m.42,3.08a3.39,3.39,0,0,0-1-2.49,3.42,3.42,0,0,0-4.92,0,3.43,3.43,0,0,0-1,2.5,3.46,3.46,0,0,0,1,2.51,3.29,3.29,0,0,0,2.46,1,3.52,3.52,0,0,0,3.5-3.54m-5.2,2.56v-5h1.79a2.54,2.54,0,0,1,1.32.28,1.42,1.42,0,0,1,.62,1.22,1.48,1.48,0,0,1-1,1.52c.17.26.58.93,1.22,2H328l-1.1-1.87h-.39v1.87Zm1.12-4v1.2h.6c.59,0,.89-.21.89-.62s-.3-.58-.89-.58Z"/><path class="cls-1" d="M323.68,40.74h-5.24a10.48,10.48,0,0,0-7.93,3.62L302.22,54V65a6.59,6.59,0,0,0,4.08-2.17L324.22,42A.72.72,0,0,0,323.68,40.74Z"/><path class="cls-2" d="M311.14,58l-2.43,2.73a4.45,4.45,0,0,0-.09,5.8c2.51,3,6.27,7.69,6.27,7.69h9.55Z"/><path class="cls-2" d="M115.4,74.21,99.69,27.41h10l11.43,36,11.37-36h10.09l-15.78,46.8Z"/><path class="cls-2" d="M164.24,27.41A15.68,15.68,0,0,1,175.61,32a15,15,0,0,1,4.61,11.17,15,15,0,0,1-4.61,11.16,15.69,15.69,0,0,1-11.37,4.55H156V74.21h-9.23V27.41Zm0,22.8a6.79,6.79,0,0,0,6.82-7.09A6.75,6.75,0,0,0,164.24,36H156V50.21Z"/><path class="cls-2" d="M219,60.64a12.6,12.6,0,0,1-4.21,9.76,14.94,14.94,0,0,1-10.37,3.81H184.55V27.41H203a14.55,14.55,0,0,1,10.1,3.74,12.17,12.17,0,0,1,4.14,9.43,11.38,11.38,0,0,1-4.41,9.36A11.6,11.6,0,0,1,219,60.64ZM193.77,36v10.3H203a5,5,0,0,0,5-5.15A4.92,4.92,0,0,0,203,36ZM204.4,65.58a5.52,5.52,0,0,0,0-11H193.77v11Z"/><path class="cls-2" d="M287.17,43.52c2.41,2.47,3.61,5.82,3.61,10.16V74.21h-8.62V54.75c0-4.48-2.61-6.88-6.62-6.88-4.48,0-7.36,2.74-7.36,8.29v18h-8.62V40.78h8.62v3.74c2.08-3.14,5.42-4.68,10-4.68A11.86,11.86,0,0,1,287.17,43.52Z"/><path class="cls-2" d="M302.24,55.49V74.21h-8.63V27.41h8.63V55.49"/><path class="cls-2" d="M248.1,40.78v3.94c-2.6-3.27-6.21-4.88-10.89-4.88A15.25,15.25,0,0,0,225.71,45,17.74,17.74,0,0,0,221,57.49a17.89,17.89,0,0,0,4.75,12.57,15.18,15.18,0,0,0,11.5,5.08c4.68,0,8.29-1.6,10.89-4.88v3.95h8.63V40.78Zm-9.36,26.36a9.69,9.69,0,1,1,9.69-9.68A9.68,9.68,0,0,1,238.74,67.14Z"/></g></svg>